<svg width="500" height="369" viewBox="0 0 500 369" fill="none" xmlns="http://www.w3.org/2000/svg">
<path d="M449.9 343.488H416.78V343.738H449.9V343.488Z" fill="#EBEBEB"/>
<path d="M331.22 346.211H322.53V346.461H331.22V346.211Z" fill="#EBEBEB"/>
<path d="M415.78 334.211H396.59V334.461H415.78V334.211Z" fill="#EBEBEB"/>
<path d="M95.6509 335.891H52.4609V336.141H95.6509V335.891Z" fill="#EBEBEB"/>
<path d="M110.89 335.891H104.56V336.141H110.89V335.891Z" fill="#EBEBEB"/>
<path d="M225.15 340.109H131.47V340.359H225.15V340.109Z" fill="#EBEBEB"/>
<path d="M237.001 282.8H43.9209C42.4066 282.8 40.9542 282.198 39.8834 281.128C38.8125 280.057 38.2109 278.604 38.2109 277.09V5.66C38.2241 4.15429 38.8315 2.71475 39.9009 1.65471C40.9703 0.594662 42.4152 -5.77259e-05 43.9209 4.20255e-09H237.001C238.515 4.20256e-09 239.968 0.601588 241.039 1.67242C242.109 2.74325 242.711 4.19561 242.711 5.71V277.09C242.711 278.604 242.109 280.057 241.039 281.128C239.968 282.198 238.515 282.8 237.001 282.8ZM43.9209 0.200001C42.4737 0.202644 41.0864 0.77874 40.0631 1.80212C39.0397 2.82549 38.4636 4.21273 38.4609 5.66V277.09C38.4636 278.537 39.0397 279.924 40.0631 280.948C41.0864 281.971 42.4737 282.547 43.9209 282.55H237.001C238.448 282.547 239.835 281.971 240.859 280.948C241.882 279.924 242.458 278.537 242.461 277.09V5.66C242.458 4.21273 241.882 2.82549 240.859 1.80212C239.835 0.77874 238.448 0.202644 237.001 0.200001H43.9209Z" fill="#EBEBEB"/>
<path d="M453.31 282.8H260.21C258.696 282.797 257.246 282.195 256.175 281.125C255.105 280.054 254.503 278.604 254.5 277.09V5.66C254.516 4.15511 255.124 2.71708 256.193 1.65759C257.262 0.598109 258.705 0.00254829 260.21 0H453.31C454.812 0.0052045 456.252 0.602249 457.317 1.66173C458.382 2.72121 458.987 4.15775 459 5.66V277.09C459 278.601 458.401 280.05 457.335 281.121C456.268 282.191 454.821 282.795 453.31 282.8ZM260.21 0.200001C258.763 0.202644 257.375 0.77874 256.352 1.80212C255.329 2.82549 254.753 4.21273 254.75 5.66V277.09C254.753 278.537 255.329 279.924 256.352 280.948C257.375 281.971 258.763 282.547 260.21 282.55H453.31C454.757 282.547 456.145 281.971 457.168 280.948C458.191 279.924 458.767 278.537 458.77 277.09V5.66C458.767 4.21273 458.191 2.82549 457.168 1.80212C456.145 0.77874 454.757 0.202644 453.31 0.200001H260.21Z" fill="#EBEBEB"/>
<path d="M500 327.398H0V327.648H500V327.398Z" fill="#EBEBEB"/>
<path d="M255.2 225.831C254.049 225.835 252.922 225.498 251.963 224.861C251.003 224.224 250.254 223.317 249.81 222.255C249.366 221.192 249.248 220.022 249.469 218.892C249.691 217.762 250.242 216.723 251.054 215.907C251.867 215.09 252.903 214.533 254.031 214.306C255.16 214.079 256.331 214.191 257.396 214.63C258.461 215.068 259.372 215.812 260.013 216.769C260.655 217.725 260.998 218.85 261 220.001C261 221.542 260.39 223.021 259.303 224.113C258.217 225.206 256.741 225.823 255.2 225.831ZM255.2 217.191C254.641 217.187 254.094 217.35 253.627 217.658C253.161 217.965 252.796 218.405 252.58 218.921C252.364 219.436 252.305 220.004 252.413 220.553C252.52 221.101 252.788 221.606 253.183 222.002C253.577 222.398 254.081 222.668 254.629 222.777C255.177 222.886 255.746 222.83 256.262 222.616C256.778 222.401 257.219 222.038 257.529 221.573C257.838 221.107 258.002 220.56 258 220.001C257.995 219.259 257.699 218.549 257.175 218.024C256.651 217.498 255.942 217.199 255.2 217.191Z" fill="#263238"/>
<path d="M259.233 222.087L257.11 224.207L264 231.106L266.123 228.986L259.233 222.087Z" fill="#263238"/>
<path d="M445.625 53.8934C448.278 37.5498 437.179 22.1501 420.836 19.4971C404.492 16.8442 389.092 27.9427 386.439 44.2863C383.786 60.6298 394.885 76.0295 411.228 78.6825C427.572 81.3354 442.972 70.237 445.625 53.8934Z" fill="#E0E0E0"/>
<path d="M416.1 79.7319C408.066 79.5868 400.41 76.2933 394.779 70.5601C389.149 64.827 385.994 57.1125 385.994 49.0769C385.994 41.0412 389.149 33.3268 394.779 27.5936C400.41 21.8605 408.066 18.567 416.1 18.4219V19.7719C408.422 19.9137 401.106 23.0636 395.726 28.5439C390.346 34.0242 387.332 41.3971 387.332 49.0769C387.332 56.7566 390.346 64.1296 395.726 69.6099C401.106 75.0902 408.422 78.24 416.1 78.3819V79.7319Z" fill="white"/>
<path d="M416.1 79.7291V78.3791C419.994 78.451 423.863 77.7462 427.481 76.3058C431.1 74.8653 434.395 72.7182 437.174 69.9899C439.953 67.2615 442.161 64.0067 443.668 60.4154C445.175 56.8242 445.951 52.9687 445.951 49.0741C445.951 45.1795 445.175 41.3239 443.668 37.7327C442.161 34.1415 439.953 30.8866 437.174 28.1582C434.395 25.4299 431.1 23.2828 427.481 21.8424C423.863 20.402 419.994 19.6971 416.1 19.7691V18.4191C420.172 18.3455 424.218 19.0841 428.002 20.5916C431.785 22.0991 435.231 24.3454 438.137 27.1993C441.042 30.0532 443.351 33.4574 444.926 37.2132C446.502 40.969 447.313 45.0011 447.313 49.0741C447.313 53.147 446.502 57.1791 444.926 60.9349C443.351 64.6907 441.042 68.095 438.137 70.9488C435.231 73.8027 431.785 76.049 428.002 77.5565C424.218 79.0641 420.172 79.8026 416.1 79.7291Z" fill="white"/>
<path d="M431.77 49.0813H430.42C430.42 39.1513 425.42 25.8512 415.74 19.6712L416.47 18.5312C426.51 25.0012 431.77 38.7813 431.77 49.0813Z" fill="white"/>
<path d="M416.47 78.7219L415.74 77.5819C425.38 71.4019 430.42 58.1019 430.42 48.1719H431.77C431.77 58.4719 426.51 72.2719 416.47 78.7219Z" fill="white"/>
<path d="M401.79 49.0813H400.44C400.44 38.7713 405.69 24.9713 415.74 18.5312L416.47 19.6613C406.83 25.8513 401.79 39.1413 401.79 49.0813Z" fill="white"/>
<path d="M415.74 78.7102C405.69 72.2602 400.44 58.4602 400.44 48.1602H401.79C401.79 58.1002 406.79 71.3902 416.47 77.5702L415.74 78.7102Z" fill="white"/>
<path d="M416.78 19.0898H415.43V79.0499H416.78V19.0898Z" fill="white"/>
<path d="M441.49 32.4297H390.73V33.7797H441.49V32.4297Z" fill="white"/>
<path d="M446.08 48.9102H386.14V50.2602H446.08V48.9102Z" fill="white"/>
<path d="M440.81 65.3789H391.4V66.7289H440.81V65.3789Z" fill="white"/>
<path d="M95.5898 38.0014C95.6006 35.9685 95.3039 33.9456 94.7098 32.0014L99.9398 27.4114L96.6498 21.7114L90.0598 24.0014C87.2919 21.026 83.7041 18.938 79.7498 18.0014L78.3798 11.1914H71.8098L70.4498 18.0014C66.4925 18.9379 62.9014 21.0257 60.1298 24.0014L53.5398 21.7714L50.2598 27.4714L55.4798 32.0614C54.3065 35.9447 54.3065 40.0881 55.4798 43.9714L50.2598 48.5514L53.5398 54.2514L60.1298 52.0014C62.9014 54.9771 66.4925 57.0649 70.4498 58.0014L71.8098 64.8214H78.3798L79.7498 58.0014C83.7041 57.0648 87.2919 54.9768 90.0598 52.0014L96.6498 54.2314L99.9398 48.5314L94.7098 44.0014C95.3023 42.0568 95.599 40.0342 95.5898 38.0014ZM75.0998 49.0814C72.991 49.0834 70.929 48.4599 69.1747 47.2897C67.4203 46.1196 66.0524 44.4554 65.2441 42.5077C64.4357 40.5601 64.2232 38.4164 64.6334 36.3479C65.0436 34.2794 66.058 32.379 67.5485 30.8872C69.0389 29.3954 70.9383 28.3791 73.0064 27.967C75.0745 27.5548 77.2184 27.7654 79.1669 28.5719C81.1153 29.3784 82.7808 30.7447 83.9525 32.498C85.1243 34.2512 85.7498 36.3126 85.7498 38.4214C85.7511 39.8208 85.4766 41.2068 84.942 42.5001C84.4073 43.7933 83.6231 44.9686 82.634 45.9586C81.6449 46.9486 80.4704 47.7339 79.1777 48.2698C77.8849 48.8056 76.4992 49.0814 75.0998 49.0814Z" fill="#E0E0E0"/>
<path d="M123.79 66.3392C123.789 64.8047 123.563 63.2785 123.12 61.8092L127.12 58.3092L124.62 53.9792L119.62 55.6792C117.512 53.421 114.779 51.8407 111.77 51.1392L110.77 45.9492H105.77L104.77 51.1392C101.759 51.8406 99.0229 53.4207 96.9104 55.6792L91.9104 53.9792L89.4004 58.3092L93.4004 61.8092C92.5069 64.7665 92.5069 67.9219 93.4004 70.8792L89.4004 74.3692L91.9104 78.7092L96.9104 77.0092C99.0229 79.2677 101.759 80.8479 104.77 81.5492L105.77 86.7392H110.77L111.77 81.5492C114.779 80.8477 117.512 79.2674 119.62 77.0092L124.62 78.7092L127.12 74.3692L123.12 70.8792C123.563 69.4065 123.789 67.8771 123.79 66.3392ZM108.18 74.7692C106.574 74.7712 105.002 74.2964 103.665 73.4049C102.329 72.5134 101.286 71.2454 100.67 69.7612C100.055 68.2771 99.8929 66.6436 100.206 65.0675C100.519 63.4915 101.292 62.0437 102.429 60.9075C103.565 59.7713 105.013 58.9978 106.589 58.6848C108.165 58.3718 109.798 58.5334 111.282 59.1492C112.767 59.7651 114.035 60.8074 114.926 62.1442C115.818 63.4811 116.292 65.0524 116.29 66.6592C116.29 68.8101 115.436 70.8729 113.915 72.3939C112.394 73.9148 110.331 74.7692 108.18 74.7692Z" fill="#E0E0E0"/>
<path d="M198.61 40.5619L201.26 35.1719L203.92 40.5519L209.86 41.4119L205.56 45.6019L206.58 51.5119L201.27 48.7219L195.97 51.5219L196.98 45.6119L192.68 41.4219L198.61 40.5619Z" fill="#EBEBEB"/>
<path d="M222.78 40.5619L225.43 35.1719L228.09 40.5519L234.02 41.4119L229.73 45.6019L230.75 51.5119L225.44 48.7219L220.13 51.5219L221.14 45.6119L216.84 41.4219L222.78 40.5619Z" fill="#EBEBEB"/>
<path d="M246.94 40.5619L249.59 35.1719L252.25 40.5519L258.19 41.4119L253.9 45.6019L254.92 51.5119L249.61 48.7219L244.3 51.5219L245.31 45.6119L241.01 41.4219L246.94 40.5619Z" fill="#EBEBEB"/>
<path d="M271.11 40.5619L273.76 35.1719L276.42 40.5519L282.36 41.4119L278.06 45.6019L279.08 51.5119L273.77 48.7219L268.47 51.5219L269.48 45.6119L265.18 41.4219L271.11 40.5619Z" fill="#EBEBEB"/>
<path d="M295.28 40.5619L297.93 35.1719L300.59 40.5519L306.52 41.4119L302.23 45.6019L303.25 51.5119L297.94 48.7219L292.63 51.5219L293.64 45.6119L289.34 41.4219L295.28 40.5619Z" fill="#EBEBEB"/>
<path d="M245.179 368.71C352.262 368.71 439.069 363.642 439.069 357.39C439.069 351.138 352.262 346.07 245.179 346.07C138.097 346.07 51.2891 351.138 51.2891 357.39C51.2891 363.642 138.097 368.71 245.179 368.71Z" fill="#F5F5F5"/>
<path d="M179.66 347.43L179.46 349.73C179.438 350.013 179.469 350.298 179.55 350.57C179.586 350.697 179.64 350.818 179.71 350.93C179.783 351.041 179.863 351.148 179.95 351.25C180.038 351.352 180.139 351.443 180.25 351.52C180.588 351.761 180.994 351.89 181.41 351.89H263.81C264.006 351.89 264.202 351.86 264.39 351.8C264.52 351.76 264.647 351.71 264.77 351.65C265.205 351.437 265.557 351.085 265.77 350.65C265.897 350.408 265.975 350.142 266 349.87L266.19 347.66C266.221 347.396 266.19 347.129 266.1 346.88C266.062 346.765 266.012 346.654 265.95 346.55C265.794 346.288 265.574 346.071 265.31 345.92C265.197 345.858 265.08 345.805 264.96 345.76C264.776 345.7 264.583 345.67 264.39 345.67H243.87C243.611 345.673 243.353 345.649 243.1 345.6L242.81 345.52C242.7 345.489 242.593 345.449 242.49 345.4C242.39 345.368 242.295 345.321 242.21 345.26C242.066 345.185 241.929 345.098 241.8 345C241.644 344.876 241.5 344.739 241.37 344.59C241.3 344.5 241.23 344.42 241.16 344.32L241.02 344.12L240.97 344.04C240.91 343.949 240.86 343.851 240.82 343.75L240.7 343.48C240.704 343.46 240.704 343.44 240.7 343.42C240.706 343.397 240.706 343.373 240.7 343.35C240.67 343.272 240.65 343.192 240.64 343.11C240.629 342.997 240.629 342.883 240.64 342.77C240.64 342.67 240.64 342.56 240.64 342.45C240.64 342.34 240.64 342.24 240.64 342.13V342C240.634 341.893 240.634 341.786 240.64 341.68C240.64 341.56 240.69 341.46 240.71 341.35L248.77 310.43L250.32 304.49L251.53 299.84H204.73L202.22 304.49L199.02 310.43L180.82 344.17C180.76 344.29 180.7 344.41 180.63 344.53L180.45 344.94C180.4 345.08 180.34 345.21 180.29 345.36L180.2 345.64C179.954 346.215 179.773 346.815 179.66 347.43Z" fill="#263238"/>
<path opacity="0.2" d="M266.159 347.68L265.969 349.91C265.918 350.451 265.669 350.953 265.271 351.322C264.872 351.691 264.352 351.9 263.809 351.91H181.429C181.153 351.911 180.879 351.855 180.625 351.744C180.371 351.634 180.143 351.472 179.955 351.269C179.767 351.066 179.624 350.826 179.533 350.565C179.442 350.303 179.407 350.026 179.429 349.75L179.629 347.45C179.682 346.835 179.802 346.228 179.989 345.64C180.159 345.126 180.373 344.627 180.629 344.15L204.549 299.82H251.349L240.529 341.33C240.458 341.568 240.414 341.813 240.399 342.06C240.331 342.88 240.564 343.697 241.056 344.356C241.548 345.016 242.264 345.472 243.069 345.64C243.322 345.699 243.58 345.726 243.839 345.72H264.329C264.583 345.713 264.835 345.761 265.069 345.858C265.302 345.956 265.513 346.103 265.686 346.288C265.859 346.473 265.99 346.693 266.072 346.933C266.154 347.173 266.183 347.428 266.159 347.68Z" fill="white"/>
<path d="M178 344.129L201.91 299.789H204.56L180.64 344.129C180.085 345.15 179.745 346.272 179.64 347.429L179.44 349.729C179.41 350.006 179.439 350.286 179.527 350.551C179.615 350.815 179.758 351.058 179.948 351.262C180.138 351.466 180.369 351.626 180.627 351.733C180.884 351.839 181.161 351.889 181.44 351.879H178.79C178.511 351.889 178.234 351.839 177.977 351.733C177.719 351.626 177.488 351.466 177.298 351.262C177.108 351.058 176.965 350.815 176.877 350.551C176.789 350.286 176.76 350.006 176.79 349.729L176.99 347.429C177.094 346.271 177.438 345.147 178 344.129Z" fill="#263238"/>
<path opacity="0.3" d="M204.579 299.789H251.369L248.609 310.389H198.859L204.579 299.789Z" fill="black"/>
<path d="M125.18 152.878V297.148C125.178 298.106 125.366 299.055 125.732 299.941C126.098 300.827 126.634 301.631 127.311 302.309C127.988 302.987 128.793 303.525 129.678 303.892C130.563 304.259 131.512 304.448 132.47 304.448H332.14C333.098 304.448 334.047 304.259 334.932 303.892C335.817 303.525 336.621 302.987 337.298 302.309C337.975 301.631 338.512 300.827 338.878 299.941C339.243 299.055 339.431 298.106 339.43 297.148V152.878C339.431 151.919 339.243 150.969 338.877 150.083C338.51 149.197 337.973 148.391 337.295 147.713C336.616 147.035 335.811 146.498 334.925 146.131C334.039 145.765 333.089 145.577 332.13 145.578H132.49C130.884 145.579 129.323 146.11 128.05 147.088C127.871 147.221 127.7 147.364 127.54 147.518C127.048 147.964 126.623 148.48 126.28 149.048C126.038 149.423 125.837 149.821 125.68 150.238C125.355 151.081 125.185 151.975 125.18 152.878Z" fill="#263238"/>
<path d="M339.429 281.551V297.151C339.429 299.087 338.66 300.944 337.291 302.313C335.922 303.682 334.066 304.451 332.129 304.451H132.489C130.553 304.451 128.697 303.682 127.328 302.313C125.959 300.944 125.189 299.087 125.189 297.151V281.551H339.429Z" fill="url(#paint0_linear_728_25510)"/>
<path opacity="0.6" d="M339.429 281.551V297.151C339.429 299.087 338.66 300.944 337.291 302.313C335.922 303.682 334.066 304.451 332.129 304.451H132.489C130.553 304.451 128.697 303.682 127.328 302.313C125.959 300.944 125.189 299.087 125.189 297.151V281.551H339.429Z" fill="white"/>
<path d="M132.619 277.14H331.999C333.06 277.14 334.077 276.719 334.828 275.968C335.578 275.218 335.999 274.201 335.999 273.14V154C335.999 152.939 335.578 151.922 334.828 151.172C334.077 150.421 333.06 150 331.999 150H132.619C131.558 150 130.541 150.421 129.791 151.172C129.041 151.922 128.619 152.939 128.619 154V273.18C128.63 274.234 129.056 275.241 129.805 275.983C130.554 276.724 131.565 277.14 132.619 277.14Z" fill="url(#paint1_linear_728_25510)"/>
<path d="M128.07 145.578H132.49C130.553 145.578 128.697 146.347 127.328 147.716C125.959 149.085 125.19 150.942 125.19 152.878V297.148C125.19 299.084 125.959 300.941 127.328 302.31C128.697 303.679 130.553 304.448 132.49 304.448H128.07C126.133 304.448 124.277 303.679 122.908 302.31C121.539 300.941 120.77 299.084 120.77 297.148V152.878C120.77 150.942 121.539 149.085 122.908 147.716C124.277 146.347 126.133 145.578 128.07 145.578Z" fill="#263238"/>
<g opacity="0.2">
<path d="M128.07 145.578H132.49C130.553 145.578 128.697 146.347 127.328 147.716C125.959 149.085 125.19 150.942 125.19 152.878V297.148C125.19 299.084 125.959 300.941 127.328 302.31C128.697 303.679 130.553 304.448 132.49 304.448H128.07C126.133 304.448 124.277 303.679 122.908 302.31C121.539 300.941 120.77 299.084 120.77 297.148V152.878C120.77 150.942 121.539 149.085 122.908 147.716C124.277 146.347 126.133 145.578 128.07 145.578Z" fill="white"/>
</g>
<path opacity="0.5" d="M337.179 225.919C332.039 224.919 323.899 228.249 322.379 233.249C322.55 231.723 322.278 230.179 321.595 228.803C320.913 227.427 319.848 226.277 318.529 225.489C315.879 223.959 312.409 222.879 309.969 224.719C311.126 219.805 310.891 214.666 309.291 209.877C307.69 205.089 304.788 200.841 300.909 197.609C293.089 191.279 281.679 190.609 272.649 195.019C273.954 192.512 274.694 189.749 274.818 186.925C274.942 184.101 274.446 181.284 273.365 178.672C272.285 176.06 270.646 173.716 268.563 171.805C266.48 169.894 264.004 168.462 261.309 167.609C248.749 163.235 235.317 161.962 222.159 163.899C214.549 165.019 206.789 167.399 201.259 172.739C195.729 178.079 194.259 187.739 197.979 194.469C193.687 193.083 189.096 192.899 184.707 193.937C180.317 194.975 176.296 197.197 173.079 200.359C169.978 203.598 167.831 207.63 166.873 212.011C165.915 216.391 166.183 220.951 167.649 225.189C166.469 224.489 165.133 224.095 163.762 224.042C162.391 223.99 161.029 224.281 159.799 224.889C158.588 225.504 157.553 226.416 156.792 227.541C156.031 228.666 155.569 229.966 155.449 231.319C153.85 229.209 151.768 227.513 149.377 226.376C146.986 225.238 144.357 224.691 141.711 224.781C139.065 224.871 136.479 225.596 134.171 226.894C131.863 228.192 129.901 230.025 128.449 232.239V277.139H335.999L337.179 225.919Z" fill="white"/>
<path d="M290.929 206.211H184.009C178.569 206.211 174.159 210.621 174.159 216.061C174.159 221.501 178.569 225.911 184.009 225.911H290.929C296.369 225.911 300.779 221.501 300.779 216.061C300.779 210.621 296.369 206.211 290.929 206.211Z" fill="white"/>
<path d="M183.399 219.831C182.248 219.831 181.123 219.49 180.166 218.851C179.209 218.211 178.463 217.302 178.022 216.239C177.582 215.175 177.466 214.005 177.691 212.876C177.915 211.747 178.47 210.71 179.284 209.896C180.098 209.082 181.135 208.528 182.264 208.303C183.393 208.079 184.563 208.194 185.626 208.634C186.69 209.075 187.599 209.821 188.238 210.778C188.878 211.735 189.219 212.86 189.219 214.011C189.216 215.554 188.602 217.033 187.512 218.124C186.421 219.215 184.942 219.829 183.399 219.831ZM183.399 211.191C182.841 211.191 182.296 211.357 181.832 211.667C181.369 211.977 181.007 212.417 180.794 212.932C180.58 213.448 180.524 214.015 180.633 214.562C180.742 215.109 181.011 215.611 181.405 216.005C181.799 216.4 182.302 216.668 182.849 216.777C183.396 216.886 183.963 216.83 184.478 216.617C184.994 216.403 185.434 216.042 185.744 215.578C186.054 215.114 186.219 214.569 186.219 214.011C186.216 213.264 185.919 212.549 185.39 212.02C184.862 211.492 184.146 211.194 183.399 211.191Z" fill="#263238"/>
<path d="M187.427 216.079L185.305 218.199L192.194 225.098L194.317 222.978L187.427 216.079Z" fill="#263238"/>
<g opacity="0.1">
<path d="M268.47 149.988H276.13L292.04 277.138H284.37L268.47 149.988Z" fill="white"/>
<path d="M299.79 277.138L283.89 149.988H312.7L328.6 277.138H299.79Z" fill="white"/>
</g>
<path opacity="0.2" d="M193.87 347.7L193.69 349.81C193.66 350.074 193.687 350.342 193.768 350.595C193.85 350.848 193.985 351.081 194.164 351.278C194.343 351.475 194.561 351.631 194.806 351.737C195.05 351.842 195.314 351.894 195.58 351.89H263.81C264.352 351.88 264.873 351.671 265.271 351.302C265.669 350.933 265.918 350.43 265.97 349.89L266.16 347.68C266.191 347.426 266.168 347.168 266.091 346.924C266.014 346.679 265.885 346.455 265.713 346.265C265.541 346.075 265.331 345.925 265.095 345.824C264.86 345.723 264.606 345.674 264.35 345.68H243.86C243.604 345.681 243.348 345.651 243.1 345.59H196.1C195.535 345.609 194.996 345.835 194.586 346.223C194.175 346.612 193.92 347.137 193.87 347.7Z" fill="white"/>
<path opacity="0.2" d="M180 345.619H243.1C242.293 345.455 241.576 344.999 241.085 344.338C240.594 343.677 240.364 342.859 240.44 342.039H182L180 345.619Z" fill="black"/>
<path d="M212.27 194.389L213.65 191.319C215.358 192.501 217.382 193.142 219.46 193.159C221.87 193.159 222.85 192.349 222.85 191.269C222.85 187.979 212.62 190.269 212.62 183.709C212.62 180.709 215.03 178.229 220.03 178.229C222.17 178.185 224.282 178.724 226.14 179.789L224.88 182.879C223.4 182.003 221.718 181.528 220 181.499C217.59 181.499 216.66 182.399 216.66 183.499C216.66 186.739 226.89 184.499 226.89 190.959C226.89 193.899 224.45 196.419 219.42 196.419C216.886 196.482 214.392 195.775 212.27 194.389Z" fill="#263238"/>
<path d="M243.309 192.861V196.121H229.689V178.531H242.999V181.801H233.749V185.621H241.919V188.791H233.749V192.861H243.309Z" fill="#263238"/>
<path d="M245.399 187.33C245.399 182.1 249.469 178.23 255.019 178.23C260.569 178.23 264.649 182.08 264.649 187.33C264.649 192.58 260.549 196.43 255.019 196.43C249.489 196.43 245.399 192.56 245.399 187.33ZM260.529 187.33C260.498 186.249 260.149 185.201 259.525 184.316C258.902 183.432 258.032 182.75 257.024 182.357C256.016 181.964 254.915 181.876 253.857 182.105C252.799 182.334 251.833 182.869 251.077 183.643C250.322 184.418 249.811 185.398 249.609 186.461C249.407 187.524 249.522 188.623 249.94 189.621C250.358 190.618 251.061 191.471 251.961 192.072C252.861 192.673 253.917 192.996 254.999 193C255.744 193.024 256.485 192.892 257.176 192.614C257.867 192.335 258.492 191.916 259.012 191.383C259.532 190.849 259.936 190.214 260.197 189.516C260.458 188.818 260.571 188.074 260.529 187.33Z" fill="#263238"/>
<path opacity="0.8" d="M232.22 238.84H190.02C187.894 238.84 186.17 240.564 186.17 242.69V251.61C186.17 253.736 187.894 255.46 190.02 255.46H232.22C234.346 255.46 236.07 253.736 236.07 251.61V242.69C236.07 240.564 234.346 238.84 232.22 238.84Z" fill="white"/>
<path opacity="0.8" d="M293.419 238.84H251.219C249.093 238.84 247.369 240.564 247.369 242.69V251.61C247.369 253.736 249.093 255.46 251.219 255.46H293.419C295.545 255.46 297.269 253.736 297.269 251.61V242.69C297.269 240.564 295.545 238.84 293.419 238.84Z" fill="white"/>
<path d="M209.92 155.659L234.71 111.659C234.797 111.505 234.923 111.377 235.076 111.288C235.229 111.199 235.403 111.152 235.58 111.152C235.757 111.152 235.93 111.199 236.083 111.288C236.236 111.377 236.362 111.505 236.45 111.659L261.24 155.659C261.323 155.811 261.365 155.982 261.362 156.155C261.36 156.328 261.312 156.497 261.224 156.646C261.137 156.795 261.012 156.919 260.862 157.005C260.712 157.092 260.543 157.138 260.37 157.139H210.8C210.626 157.14 210.455 157.095 210.304 157.009C210.152 156.923 210.026 156.8 209.937 156.65C209.849 156.501 209.8 156.331 209.797 156.157C209.794 155.983 209.836 155.812 209.92 155.659Z" fill="url(#paint2_linear_728_25510)"/>
<path opacity="0.3" d="M209.92 155.659L234.71 111.659C234.797 111.505 234.923 111.377 235.076 111.288C235.229 111.199 235.403 111.152 235.58 111.152C235.757 111.152 235.93 111.199 236.083 111.288C236.236 111.377 236.362 111.505 236.45 111.659L261.24 155.659C261.323 155.811 261.365 155.982 261.362 156.155C261.36 156.328 261.312 156.497 261.224 156.646C261.137 156.795 261.012 156.919 260.862 157.005C260.712 157.092 260.543 157.138 260.37 157.139H210.8C210.626 157.14 210.455 157.095 210.304 157.009C210.152 156.923 210.026 156.8 209.937 156.65C209.849 156.501 209.8 156.331 209.797 156.157C209.794 155.983 209.836 155.812 209.92 155.659Z" fill="black"/>
<path d="M223.8 163.729L222.59 158.789H218.25L217.05 163.729C219.211 164.624 221.639 164.624 223.8 163.729Z" fill="#263238"/>
<path opacity="0.2" d="M218.25 158.789L217.97 159.939C219.569 160.409 221.27 160.409 222.87 159.939L222.59 158.789H218.25Z" fill="white"/>
<path opacity="0.4" d="M217.669 161.18C217.589 161.5 217.509 161.81 217.439 162.11C219.392 162.724 221.487 162.724 223.439 162.11L223.219 161.18C221.388 161.55 219.501 161.55 217.669 161.18Z" fill="white"/>
<path d="M225 158.44C222.067 159.651 218.773 159.651 215.84 158.44V121.74C215.837 119.685 216.24 117.651 217.026 115.753C217.812 113.855 218.965 112.131 220.42 110.68C221.874 112.131 223.028 113.855 223.814 115.753C224.6 117.651 225.003 119.685 225 121.74V158.44Z" fill="url(#paint3_linear_728_25510)"/>
<path d="M215.84 121.74V156.33C218.805 157.365 222.034 157.365 225 156.33V121.74C225.003 119.685 224.6 117.651 223.814 115.753C223.028 113.855 221.874 112.131 220.42 110.68C218.965 112.131 217.812 113.855 217.026 115.753C216.24 117.651 215.837 119.685 215.84 121.74Z" fill="url(#paint4_linear_728_25510)"/>
<path opacity="0.4" d="M215.84 121.74V156.33C218.805 157.365 222.034 157.365 225 156.33V121.74C225.003 119.685 224.6 117.651 223.814 115.753C223.028 113.855 221.874 112.131 220.42 110.68C218.965 112.131 217.812 113.855 217.026 115.753C216.24 117.651 215.837 119.685 215.84 121.74Z" fill="white"/>
<path d="M215.84 121.74V147.74C218.833 148.595 222.006 148.595 225 147.74V121.74C225.003 119.685 224.6 117.651 223.814 115.753C223.028 113.855 221.874 112.131 220.42 110.68C218.965 112.131 217.812 113.855 217.026 115.753C216.24 117.651 215.837 119.685 215.84 121.74Z" fill="url(#paint5_linear_728_25510)"/>
<path opacity="0.6" d="M215.84 121.74V147.74C218.833 148.595 222.006 148.595 225 147.74V121.74C225.003 119.685 224.6 117.651 223.814 115.753C223.028 113.855 221.874 112.131 220.42 110.68C218.965 112.131 217.812 113.855 217.026 115.753C216.24 117.651 215.837 119.685 215.84 121.74Z" fill="white"/>
<path d="M215.84 121.74V135.34C218.833 136.2 222.007 136.2 225 135.34V121.74C225.003 119.685 224.6 117.651 223.814 115.753C223.028 113.855 221.874 112.131 220.42 110.68C218.965 112.131 217.812 113.855 217.026 115.753C216.24 117.651 215.837 119.685 215.84 121.74Z" fill="url(#paint6_linear_728_25510)"/>
<path opacity="0.8" d="M215.84 121.74V135.34C218.833 136.2 222.007 136.2 225 135.34V121.74C225.003 119.685 224.6 117.651 223.814 115.753C223.028 113.855 221.874 112.131 220.42 110.68C218.965 112.131 217.812 113.855 217.026 115.753C216.24 117.651 215.837 119.685 215.84 121.74Z" fill="white"/>
<path d="M215.84 121.74V123.33C218.833 124.185 222.006 124.185 225 123.33V121.74C225.003 119.685 224.6 117.651 223.814 115.753C223.028 113.855 221.874 112.131 220.42 110.68C218.965 112.131 217.812 113.855 217.026 115.753C216.24 117.651 215.837 119.685 215.84 121.74Z" fill="url(#paint7_linear_728_25510)"/>
<path opacity="0.4" d="M215.84 121.74V123.33C218.833 124.185 222.006 124.185 225 123.33V121.74C225.003 119.685 224.6 117.651 223.814 115.753C223.028 113.855 221.874 112.131 220.42 110.68C218.965 112.131 217.812 113.855 217.026 115.753C216.24 117.651 215.837 119.685 215.84 121.74Z" fill="white"/>
<path d="M253.27 163.729L252.07 158.789H247.73L246.52 163.729C248.681 164.624 251.109 164.624 253.27 163.729Z" fill="#263238"/>
<path opacity="0.2" d="M247.729 158.789L247.449 159.939C249.049 160.409 250.75 160.409 252.349 159.939L252.069 158.789H247.729Z" fill="white"/>
<path opacity="0.4" d="M247.14 161.18C247.07 161.5 246.99 161.81 246.92 162.11C248.873 162.724 250.967 162.724 252.92 162.11L252.69 161.18C250.858 161.55 248.971 161.55 247.14 161.18Z" fill="white"/>
<path d="M254.479 158.44C251.546 159.651 248.253 159.651 245.319 158.44V121.74C245.316 119.685 245.719 117.651 246.505 115.753C247.291 113.855 248.445 112.131 249.899 110.68C251.354 112.131 252.507 113.855 253.293 115.753C254.079 117.651 254.482 119.685 254.479 121.74V158.44Z" fill="url(#paint8_linear_728_25510)"/>
<path d="M245.319 121.74V156.33C248.285 157.365 251.514 157.365 254.479 156.33V121.74C254.482 119.685 254.079 117.651 253.293 115.753C252.507 113.855 251.354 112.131 249.899 110.68C248.445 112.131 247.291 113.855 246.505 115.753C245.719 117.651 245.316 119.685 245.319 121.74Z" fill="url(#paint9_linear_728_25510)"/>
<path opacity="0.4" d="M245.319 121.74V156.33C248.285 157.365 251.514 157.365 254.479 156.33V121.74C254.482 119.685 254.079 117.651 253.293 115.753C252.507 113.855 251.354 112.131 249.899 110.68C248.445 112.131 247.291 113.855 246.505 115.753C245.719 117.651 245.316 119.685 245.319 121.74Z" fill="white"/>
<path d="M245.319 121.74V147.74C248.313 148.595 251.486 148.595 254.479 147.74V121.74C254.482 119.685 254.079 117.651 253.293 115.753C252.507 113.855 251.354 112.131 249.899 110.68C248.445 112.131 247.291 113.855 246.505 115.753C245.719 117.651 245.316 119.685 245.319 121.74Z" fill="url(#paint10_linear_728_25510)"/>
<path opacity="0.6" d="M245.319 121.74V147.74C248.313 148.595 251.486 148.595 254.479 147.74V121.74C254.482 119.685 254.079 117.651 253.293 115.753C252.507 113.855 251.354 112.131 249.899 110.68C248.445 112.131 247.291 113.855 246.505 115.753C245.719 117.651 245.316 119.685 245.319 121.74Z" fill="white"/>
<path d="M245.319 121.74V135.34C248.312 136.2 251.487 136.2 254.479 135.34V121.74C254.482 119.685 254.079 117.651 253.293 115.753C252.507 113.855 251.354 112.131 249.899 110.68C248.445 112.131 247.291 113.855 246.505 115.753C245.719 117.651 245.316 119.685 245.319 121.74Z" fill="url(#paint11_linear_728_25510)"/>
<path opacity="0.8" d="M245.319 121.74V135.34C248.312 136.2 251.487 136.2 254.479 135.34V121.74C254.482 119.685 254.079 117.651 253.293 115.753C252.507 113.855 251.354 112.131 249.899 110.68C248.445 112.131 247.291 113.855 246.505 115.753C245.719 117.651 245.316 119.685 245.319 121.74Z" fill="white"/>
<path d="M245.319 121.74V123.33C248.313 124.185 251.486 124.185 254.479 123.33V121.74C254.482 119.685 254.079 117.651 253.293 115.753C252.507 113.855 251.354 112.131 249.899 110.68C248.445 112.131 247.291 113.855 246.505 115.753C245.719 117.651 245.316 119.685 245.319 121.74Z" fill="url(#paint12_linear_728_25510)"/>
<path opacity="0.4" d="M245.319 121.74V123.33C248.313 124.185 251.486 124.185 254.479 123.33V121.74C254.482 119.685 254.079 117.651 253.293 115.753C252.507 113.855 251.354 112.131 249.899 110.68C248.445 112.131 247.291 113.855 246.505 115.753C245.719 117.651 245.316 119.685 245.319 121.74Z" fill="white"/>
<path d="M240.609 166.559L238.609 158.559H231.609L229.659 166.559C231.393 167.286 233.254 167.661 235.134 167.661C237.014 167.661 238.876 167.286 240.609 166.559Z" fill="#263238"/>
<path opacity="0.2" d="M231.659 158.588C231.659 158.588 231.369 159.788 231.199 160.448C233.785 161.203 236.533 161.203 239.119 160.448L238.659 158.578L231.659 158.588Z" fill="white"/>
<path opacity="0.4" d="M230.71 162.461L230.35 163.961C233.483 164.931 236.836 164.931 239.97 163.961L239.61 162.461C236.671 163.04 233.648 163.04 230.71 162.461Z" fill="white"/>
<path d="M242.56 158C240.215 158.978 237.7 159.481 235.16 159.481C232.619 159.481 230.104 158.978 227.76 158V98.7797C227.757 95.4636 228.409 92.1796 229.679 89.1163C230.949 86.053 232.811 83.2708 235.16 80.9297C237.508 83.2708 239.371 86.053 240.641 89.1163C241.911 92.1796 242.563 95.4636 242.56 98.7797V158Z" fill="url(#paint13_linear_728_25510)"/>
<path d="M227.76 98.7797V154.63C232.553 156.29 237.766 156.29 242.56 154.63V98.7797C242.563 95.4636 241.911 92.1796 240.641 89.1163C239.371 86.053 237.508 83.2708 235.16 80.9297C232.811 83.2708 230.949 86.053 229.679 89.1163C228.409 92.1796 227.757 95.4636 227.76 98.7797Z" fill="url(#paint14_linear_728_25510)"/>
<path opacity="0.4" d="M227.76 98.7797V154.63C232.553 156.29 237.766 156.29 242.56 154.63V98.7797C242.563 95.4636 241.911 92.1796 240.641 89.1163C239.371 86.053 237.508 83.2708 235.16 80.9297C232.811 83.2708 230.949 86.053 229.679 89.1163C228.409 92.1796 227.757 95.4636 227.76 98.7797Z" fill="white"/>
<path d="M227.76 98.7797V140.72C232.597 142.098 237.723 142.098 242.56 140.72V98.7797C242.563 95.4636 241.911 92.1796 240.641 89.1163C239.371 86.053 237.508 83.2708 235.16 80.9297C232.811 83.2708 230.949 86.053 229.679 89.1163C228.409 92.1796 227.757 95.4636 227.76 98.7797Z" fill="url(#paint15_linear_728_25510)"/>
<path opacity="0.6" d="M227.76 98.7797V140.72C232.597 142.098 237.723 142.098 242.56 140.72V98.7797C242.563 95.4636 241.911 92.1796 240.641 89.1163C239.371 86.053 237.508 83.2708 235.16 80.9297C232.811 83.2708 230.949 86.053 229.679 89.1163C228.409 92.1796 227.757 95.4636 227.76 98.7797Z" fill="white"/>
<path d="M227.76 98.7797V120.78C232.597 122.158 237.723 122.158 242.56 120.78V98.7797C242.563 95.4636 241.911 92.1796 240.641 89.1163C239.371 86.053 237.508 83.2708 235.16 80.9297C232.811 83.2708 230.949 86.053 229.679 89.1163C228.409 92.1796 227.757 95.4636 227.76 98.7797Z" fill="url(#paint16_linear_728_25510)"/>
<path opacity="0.8" d="M227.76 98.7797V120.78C232.597 122.158 237.723 122.158 242.56 120.78V98.7797C242.563 95.4636 241.911 92.1796 240.641 89.1163C239.371 86.053 237.508 83.2708 235.16 80.9297C232.811 83.2708 230.949 86.053 229.679 89.1163C228.409 92.1796 227.757 95.4636 227.76 98.7797Z" fill="white"/>
<path d="M227.76 98.7797V101.35C232.597 102.728 237.723 102.728 242.56 101.35V98.7797C242.563 95.4636 241.911 92.1796 240.641 89.1163C239.371 86.053 237.508 83.2708 235.16 80.9297C232.811 83.2708 230.949 86.053 229.679 89.1163C228.409 92.1796 227.757 95.4636 227.76 98.7797Z" fill="url(#paint17_linear_728_25510)"/>
<path opacity="0.1" d="M227.76 98.7797V101.35C232.597 102.728 237.723 102.728 242.56 101.35V98.7797C242.563 95.4636 241.911 92.1796 240.641 89.1163C239.371 86.053 237.508 83.2708 235.16 80.9297C232.811 83.2708 230.949 86.053 229.679 89.1163C228.409 92.1796 227.757 95.4636 227.76 98.7797Z" fill="white"/>
<path d="M239.47 110.628C239.472 111.481 239.22 112.315 238.748 113.025C238.276 113.735 237.603 114.289 236.816 114.617C236.029 114.945 235.162 115.032 234.325 114.867C233.488 114.701 232.719 114.292 232.116 113.689C231.512 113.087 231.1 112.319 230.933 111.483C230.766 110.646 230.851 109.779 231.177 108.991C231.503 108.203 232.055 107.529 232.764 107.055C233.473 106.581 234.307 106.328 235.16 106.328C236.301 106.328 237.396 106.781 238.204 107.587C239.012 108.393 239.467 109.487 239.47 110.628Z" fill="url(#paint18_linear_728_25510)"/>
<path d="M235.159 114.941C234.07 114.944 233.02 114.532 232.224 113.789C231.427 113.046 230.943 112.028 230.869 110.941C230.869 111.051 230.869 111.161 230.869 111.261C230.869 112.404 231.323 113.501 232.132 114.309C232.94 115.117 234.036 115.571 235.179 115.571C236.322 115.571 237.418 115.117 238.227 114.309C239.035 113.501 239.489 112.404 239.489 111.261C239.489 111.161 239.489 111.051 239.489 110.941C239.413 112.034 238.922 113.057 238.117 113.8C237.313 114.544 236.255 114.952 235.159 114.941Z" fill="url(#paint19_linear_728_25510)"/>
<path opacity="0.3" d="M235.159 114.941C234.07 114.944 233.02 114.532 232.224 113.789C231.427 113.046 230.943 112.028 230.869 110.941C230.869 111.051 230.869 111.161 230.869 111.261C230.869 112.404 231.323 113.501 232.132 114.309C232.94 115.117 234.036 115.571 235.179 115.571C236.322 115.571 237.418 115.117 238.227 114.309C239.035 113.501 239.489 112.404 239.489 111.261C239.489 111.161 239.489 111.051 239.489 110.941C239.413 112.034 238.922 113.057 238.117 113.8C237.313 114.544 236.255 114.952 235.159 114.941Z" fill="black"/>
<path d="M235.159 113.678C236.844 113.678 238.209 112.313 238.209 110.628C238.209 108.944 236.844 107.578 235.159 107.578C233.475 107.578 232.109 108.944 232.109 110.628C232.109 112.313 233.475 113.678 235.159 113.678Z" fill="white"/>
<path d="M235 113.662L236.25 107.802C235.931 107.676 235.593 107.608 235.25 107.602L234 113.452C234.318 113.581 234.657 113.652 235 113.662Z" fill="url(#paint20_linear_728_25510)"/>
<path d="M236.139 113.509L237.219 108.399C237.08 108.271 236.929 108.158 236.769 108.059L235.579 113.639C235.769 113.611 235.956 113.567 236.139 113.509Z" fill="url(#paint21_linear_728_25510)"/>
<g opacity="0.7">
<path d="M235 113.662L236.25 107.802C235.931 107.676 235.593 107.608 235.25 107.602L234 113.452C234.318 113.581 234.657 113.652 235 113.662Z" fill="white"/>
<path d="M236.14 113.512L237.22 108.402C237.081 108.275 236.93 108.161 236.77 108.062L235.58 113.643C235.77 113.615 235.957 113.571 236.14 113.512Z" fill="white"/>
</g>
<path d="M345.571 226.26L344.421 226.51C343.907 226.613 343.437 226.875 343.079 227.259C342.72 227.643 342.49 228.129 342.421 228.65L342.321 229.46C342.269 229.864 342.317 230.275 342.46 230.656C342.602 231.038 342.837 231.379 343.141 231.65C345.031 233.3 349.491 236.36 354.891 234.39L359.201 231.14L358.491 225.32L349.491 224.02C348.947 224.04 348.424 224.236 348.001 224.58L345.571 226.26Z" fill="#FAB27B"/>
<path d="M359.232 231.141L371.202 230.541L369.352 224.031L358.521 225.321L359.232 231.141Z" fill="#FAB27B"/>
<path d="M366.361 224.079C365.871 224.997 365.702 226.053 365.881 227.079C366.099 228.74 366.766 230.31 367.811 231.619C365.795 231.649 363.811 232.138 362.011 233.049L361.911 233.099C355.671 228.839 359.271 223.789 359.271 223.789L359.681 223.849C361.894 224.155 364.133 224.232 366.361 224.079Z" fill="url(#paint22_linear_728_25510)"/>
<path d="M390.871 229.451C379.751 232.011 365.921 231.761 365.921 231.761C365.466 230.992 365.26 230.101 365.331 229.211C365.431 227.351 365.681 225.021 366.331 224.081C366.981 223.141 371.791 222.641 371.791 222.641C371.791 222.641 381.081 218.331 382.841 216.921C384.601 215.511 384.531 208.921 384.201 204.591C382.431 181.321 386.521 179.591 390.201 178.521C398.001 176.351 400.711 227.181 390.871 229.451Z" fill="url(#paint23_linear_728_25510)"/>
<path d="M314.681 234.44H345.761C346.761 234.44 347.231 233.62 346.761 232.61L339.001 215.08C338.759 214.569 338.387 214.131 337.922 213.81C337.456 213.489 336.915 213.296 336.351 213.25H305.261C304.261 213.25 303.791 214.07 304.261 215.08L312.061 232.61C312.3 233.117 312.668 233.553 313.127 233.874C313.587 234.195 314.123 234.39 314.681 234.44Z" fill="url(#paint24_linear_728_25510)"/>
<path opacity="0.2" d="M314.681 234.44H345.761C346.761 234.44 347.231 233.62 346.761 232.61L339.001 215.08C338.759 214.569 338.387 214.131 337.922 213.81C337.456 213.489 336.915 213.296 336.351 213.25H305.261C304.261 213.25 303.791 214.07 304.261 215.08L312.061 232.61C312.3 233.117 312.668 233.553 313.127 233.874C313.587 234.195 314.123 234.39 314.681 234.44Z" fill="black"/>
<path d="M303.912 213.25H305.262C304.262 213.25 303.792 214.07 304.262 215.08L312.062 232.61C312.302 233.12 312.673 233.558 313.137 233.879C313.6 234.2 314.14 234.394 314.702 234.44H313.362C312.798 234.394 312.257 234.201 311.792 233.88C311.327 233.559 310.954 233.121 310.712 232.61L302.922 215.08C302.452 214.07 302.902 213.25 303.912 213.25Z" fill="url(#paint25_linear_728_25510)"/>
<path opacity="0.4" d="M303.912 213.25H305.262C304.262 213.25 303.792 214.07 304.262 215.08L312.062 232.61C312.302 233.12 312.673 233.558 313.137 233.879C313.6 234.2 314.14 234.394 314.702 234.44H313.362C312.798 234.394 312.257 234.201 311.792 233.88C311.327 233.559 310.954 233.121 310.712 232.61L302.922 215.08C302.452 214.07 302.902 213.25 303.912 213.25Z" fill="black"/>
<path d="M315.262 232.428H343.392L335.762 215.258H307.632L315.262 232.428Z" fill="#263238"/>
<path opacity="0.8" d="M315.262 232.428H343.392L335.762 215.258H307.632L315.262 232.428Z" fill="white"/>
<path d="M407.821 233.069C407.821 233.069 408.591 243.329 408.701 246.929C409.451 270.979 389.821 272.809 375.381 270.159L323.081 255.539C321.011 262.489 296.831 300.759 296.831 300.759L284.121 293.459C284.121 293.459 297.301 261.869 305.811 239.879C310.661 227.329 350.191 236.009 364.751 238.599C369.171 239.789 368.321 232.879 368.321 232.879L407.821 233.069Z" fill="#263238"/>
<path d="M293.592 300.038L288.732 308.128L279.682 303.628L284.392 294.418L293.592 300.038Z" fill="#FAB27B"/>
<path d="M274.862 302C273.672 301.45 272.532 300.67 272.372 300C272.343 299.806 272.373 299.607 272.456 299.429C272.54 299.252 272.674 299.102 272.842 299C272.987 298.902 273.15 298.833 273.322 298.799C273.493 298.765 273.67 298.765 273.842 298.8C275.652 299.09 278.132 302.54 278.232 302.69C278.264 302.732 278.281 302.783 278.281 302.835C278.281 302.888 278.264 302.938 278.232 302.98C278.2 303.02 278.158 303.05 278.111 303.068C278.063 303.085 278.012 303.09 277.962 303.08C276.899 302.812 275.861 302.451 274.862 302ZM274.192 299.43C274.047 299.36 273.892 299.312 273.732 299.29C273.632 299.263 273.527 299.259 273.424 299.278C273.322 299.297 273.226 299.339 273.142 299.4C272.842 299.61 272.832 299.77 272.862 299.88C273.022 300.71 275.442 301.83 277.332 302.43C276.488 301.229 275.422 300.201 274.192 299.4V299.43Z" fill="url(#paint26_linear_728_25510)"/>
<path d="M277.891 303.001C277.862 303.013 277.83 303.013 277.801 303.001C276.891 302.001 275.531 298.831 276.231 297.841C276.371 297.591 276.711 297.361 277.371 297.591C277.611 297.675 277.831 297.807 278.019 297.979C278.206 298.151 278.357 298.359 278.461 298.591C279.221 300.161 278.291 302.871 278.251 302.991C278.236 303.034 278.21 303.071 278.174 303.1C278.139 303.128 278.096 303.146 278.051 303.151C278.015 303.14 277.982 303.12 277.954 303.094C277.926 303.068 277.905 303.036 277.891 303.001ZM277.321 298.001L277.201 297.931C276.771 297.771 276.671 297.931 276.631 297.981C276.271 298.601 277.041 300.921 277.911 302.171C278.294 301.029 278.319 299.797 277.981 298.641C277.847 298.354 277.612 298.126 277.321 298.001Z" fill="url(#paint27_linear_728_25510)"/>
<path d="M279.522 302.151L290.002 306.941C290.188 307.026 290.34 307.17 290.436 307.351C290.532 307.532 290.565 307.739 290.532 307.941L288.532 317.341C288.491 317.54 288.411 317.73 288.297 317.898C288.183 318.067 288.037 318.211 287.867 318.323C287.697 318.434 287.506 318.511 287.306 318.548C287.106 318.586 286.901 318.583 286.702 318.541C286.594 318.521 286.49 318.488 286.392 318.441C282.642 316.651 279.392 314.901 274.662 312.761C269.112 310.221 270.212 311.531 263.662 308.631C259.662 306.881 261.032 302.081 262.792 302.631C270.872 305.171 272.722 303.221 276.922 301.841C277.796 301.615 278.724 301.726 279.522 302.151Z" fill="#263238"/>
<path opacity="0.2" d="M291.121 304.148L293.591 300.038L284.391 294.418L282.111 298.868L291.121 304.148Z" fill="black"/>
<path d="M298.851 299.998L283.091 290.168C282.374 290.568 281.798 291.179 281.44 291.918C281.082 292.656 280.96 293.488 281.091 294.298L296.251 303.998C296.251 303.998 298.281 303.868 298.851 299.998Z" fill="url(#paint28_linear_728_25510)"/>
<path d="M320.412 340.29L318.502 349.26L308.762 347.98L310.182 338.02L320.412 340.29Z" fill="#FAB27B"/>
<path d="M303.812 347.998C302.542 347.868 301.252 347.508 300.882 346.918C300.801 346.759 300.769 346.578 300.791 346.4C300.812 346.222 300.885 346.055 301.002 345.918C301.201 345.655 301.495 345.48 301.822 345.428C303.572 345.128 306.942 347.508 307.092 347.618C307.131 347.647 307.161 347.688 307.178 347.734C307.194 347.781 307.195 347.831 307.182 347.878C307.166 347.927 307.137 347.969 307.098 348.001C307.059 348.033 307.012 348.053 306.962 348.058C305.912 348.129 304.858 348.108 303.812 347.998ZM302.382 345.848C302.226 345.823 302.067 345.823 301.912 345.848C301.811 345.856 301.712 345.886 301.624 345.937C301.536 345.987 301.46 346.056 301.402 346.138C301.192 346.428 301.242 346.578 301.302 346.668C301.712 347.378 304.302 347.668 306.212 347.598C305.058 346.772 303.759 346.171 302.382 345.828V345.848Z" fill="url(#paint29_linear_728_25510)"/>
<path d="M306.932 348C306.899 348.011 306.864 348.011 306.832 348C305.662 347.33 303.422 344.88 303.752 343.75C303.802 343.47 304.042 343.16 304.752 343.16C304.994 343.157 305.234 343.203 305.458 343.296C305.681 343.388 305.883 343.526 306.052 343.7C307.252 344.9 307.252 347.7 307.252 347.81C307.252 347.854 307.24 347.897 307.217 347.934C307.194 347.971 307.161 348.001 307.122 348.02C307.091 348.035 307.057 348.041 307.024 348.038C306.99 348.034 306.958 348.021 306.932 348ZM304.832 343.62H304.702C304.262 343.62 304.212 343.79 304.192 343.85C304.062 344.54 305.502 346.43 306.692 347.3C306.685 346.132 306.319 344.993 305.642 344.04C305.427 343.818 305.139 343.68 304.832 343.65V343.62Z" fill="url(#paint30_linear_728_25510)"/>
<path d="M308.152 346.659L319.302 347.759C319.507 347.778 319.699 347.867 319.846 348.011C319.994 348.155 320.088 348.345 320.112 348.549L321.242 357.819C321.29 358.214 321.181 358.612 320.937 358.926C320.694 359.241 320.336 359.447 319.942 359.499C319.835 359.509 319.728 359.509 319.622 359.499C315.622 359.029 312.052 358.499 307.052 357.979C301.142 357.399 302.572 358.249 295.612 357.669C291.422 357.309 291.122 352.479 292.922 352.419C301.142 352.199 302.232 349.829 305.642 347.229C306.382 346.741 307.274 346.538 308.152 346.659Z" fill="#263238"/>
<path opacity="0.2" d="M309.432 343.26L319.612 344.05L320.412 340.29L310.182 338.02L309.432 343.26Z" fill="black"/>
<path d="M323.301 336.739L323.011 337.869L308.081 336.689L308.241 335.559L323.301 336.739Z" fill="#263238"/>
<path d="M323.911 341.42L320.231 341.09L309.871 340.16L306.531 339.86C306.057 339.222 305.788 338.454 305.761 337.659C305.734 336.863 305.951 336.079 306.381 335.41L308.241 335.56L323.301 336.74L324.381 336.83C325.631 340.42 323.911 341.42 323.911 341.42Z" fill="url(#paint31_linear_728_25510)"/>
<path d="M384.531 279.078C371.021 280.268 339.861 280.768 335.641 280.148L323.301 336.738L308.241 335.558C308.241 335.558 309.831 286.628 316.471 266.398C321.811 250.138 407.231 253.508 407.231 253.508L407.531 258.088C408.121 273.868 400.001 277.708 384.531 279.078Z" fill="#263238"/>
<path opacity="0.1" d="M384.531 279.078C371.021 280.268 339.861 280.768 335.641 280.148L323.301 336.738L308.241 335.558C308.241 335.558 309.831 286.628 316.471 266.398C321.811 250.138 407.231 253.508 407.231 253.508L407.531 258.088C408.121 273.868 400.001 277.708 384.531 279.078Z" fill="black"/>
<path d="M316.231 272.309C316.226 272.219 316.226 272.129 316.231 272.039V272.309Z" fill="#263238"/>
<path d="M317.242 265L317.092 266.11C317.121 265.737 317.171 265.367 317.242 265Z" fill="#263238"/>
<path d="M365.062 176.588L369.212 182.648L378.542 174.668L372.712 167.508L365.062 176.588Z" fill="#FAB27B"/>
<path opacity="0.2" d="M367.141 179.459C368.941 176.809 368.141 172.699 368.141 172.699L366.501 174.789L365.081 176.589L367.141 179.459Z" fill="black"/>
<path d="M349.101 163.239C349.301 163.829 349.781 164.239 350.171 164.059C350.561 163.879 350.731 163.289 350.521 162.719C350.311 162.149 349.851 161.719 349.451 161.909C349.051 162.099 348.911 162.649 349.101 163.239Z" fill="#263238"/>
<path d="M351.261 163.418L349.941 169.078C350.609 169.217 351.3 169.199 351.959 169.026C352.619 168.852 353.229 168.528 353.741 168.078L351.261 163.418Z" fill="#ED893E"/>
<path d="M348.511 159.11C348.559 159.086 348.612 159.073 348.666 159.073C348.72 159.073 348.773 159.086 348.821 159.11C349.199 159.269 349.609 159.336 350.018 159.304C350.427 159.273 350.822 159.145 351.171 158.93C351.205 158.904 351.243 158.884 351.285 158.874C351.326 158.863 351.369 158.86 351.412 158.867C351.454 158.874 351.494 158.889 351.53 158.912C351.566 158.935 351.597 158.965 351.621 159C351.669 159.073 351.688 159.161 351.673 159.246C351.658 159.332 351.611 159.408 351.541 159.46C351.104 159.752 350.6 159.93 350.076 159.977C349.552 160.024 349.024 159.94 348.541 159.73C348.5 159.715 348.463 159.691 348.431 159.661C348.399 159.631 348.374 159.595 348.356 159.555C348.339 159.515 348.329 159.472 348.328 159.428C348.327 159.385 348.335 159.341 348.351 159.3C348.385 159.223 348.441 159.157 348.511 159.11Z" fill="#263238"/>
<path d="M371.272 153.001C374.272 160.731 375.762 163.941 373.702 169.651C369.652 176.401 360.322 180.501 355.002 173.881C350.222 167.881 346.072 156.311 352.132 149.681C354.155 147.409 356.995 146.03 360.031 145.842C363.067 145.655 366.054 146.675 368.342 148.681C369.651 149.865 370.656 151.346 371.272 153.001Z" fill="#FAB27B"/>
<path d="M378.591 155.299C378.17 157.894 377.912 160.512 377.821 163.139C377.75 165.564 376.957 167.912 375.545 169.884C374.132 171.855 372.164 173.361 369.891 174.209C369.891 174.209 358.991 174.079 354.361 160.369C353.081 160.49 351.79 160.294 350.603 159.798C349.415 159.302 348.368 158.522 347.554 157.526C346.74 156.53 346.183 155.349 345.933 154.087C345.684 152.825 345.748 151.52 346.121 150.289C347.011 147.369 350.701 145.549 353.751 145.439C354.751 144.141 356.055 143.108 357.547 142.431C359.04 141.754 360.676 141.455 362.311 141.559C365.61 141.827 368.796 142.883 371.601 144.639C374.133 145.906 376.276 147.834 377.801 150.219C378.616 151.78 378.894 153.565 378.591 155.299Z" fill="#263238"/>
<path d="M356.632 162.001C356.286 162.774 356.098 163.608 356.077 164.454C356.056 165.3 356.204 166.142 356.512 166.931C357.352 169.021 359.592 168.671 360.882 166.931C362.052 165.341 363.002 162.361 361.422 160.821C359.842 159.281 357.502 160.101 356.632 162.001Z" fill="#FAB27B"/>
<path d="M378.622 170.16C375.622 170.29 371.192 172.32 365.272 176.4C364.962 176.669 364.726 177.012 364.586 177.396C364.447 177.781 364.407 178.196 364.472 178.6C364.542 179.4 365.342 180.15 366.102 179.9C366.492 180.9 366.752 182 367.102 182.96C368.952 182.017 370.871 181.215 372.842 180.56C375.826 179.37 378.882 178.368 381.992 177.56C381.162 176.29 380.052 175.05 379.722 173.56C380.072 173.405 380.357 173.132 380.526 172.788C380.696 172.445 380.741 172.053 380.652 171.68C380.481 171.268 380.203 170.909 379.846 170.641C379.488 170.374 379.065 170.207 378.622 170.16Z" fill="url(#paint32_linear_728_25510)"/>
<path d="M378.622 170.16C375.622 170.29 371.192 172.32 365.272 176.4C364.962 176.669 364.726 177.012 364.586 177.396C364.447 177.781 364.407 178.196 364.472 178.6C364.542 179.4 365.342 180.15 366.102 179.9C366.492 180.9 366.752 182 367.102 182.96C368.952 182.017 370.871 181.215 372.842 180.56C375.826 179.37 378.882 178.368 381.992 177.56C381.162 176.29 380.052 175.05 379.722 173.56C380.072 173.405 380.357 173.132 380.526 172.788C380.696 172.445 380.741 172.053 380.652 171.68C380.481 171.268 380.203 170.909 379.846 170.641C379.488 170.374 379.065 170.207 378.622 170.16Z" fill="url(#paint33_linear_728_25510)"/>
<path d="M369.841 246.759C363.495 231.571 358.094 216.005 353.671 200.149C349.031 182.829 362.281 182.529 378.271 178.229C390.951 174.819 396.371 177.869 399.991 184.299C403.611 190.729 409.451 245.149 409.451 245.149L369.841 246.759Z" fill="url(#paint34_linear_728_25510)"/>
<path d="M369.841 246.759C363.495 231.571 358.094 216.005 353.671 200.149C349.031 182.829 362.281 182.529 378.271 178.229C390.951 174.819 396.371 177.869 399.991 184.299C403.611 190.729 409.451 245.149 409.451 245.149L369.841 246.759Z" fill="url(#paint35_linear_728_25510)"/>
<path opacity="0.3" d="M369.841 246.759C363.495 231.571 358.094 216.005 353.671 200.149C349.031 182.829 362.281 182.529 378.271 178.229C390.951 174.819 396.371 177.869 399.991 184.299C403.611 190.729 409.451 245.149 409.451 245.149L369.841 246.759Z" fill="black"/>
<path d="M312.002 221.799H310.882C310.383 221.818 309.902 221.992 309.506 222.297C309.11 222.601 308.819 223.021 308.672 223.499L308.442 224.239C308.323 224.61 308.298 225.005 308.367 225.389C308.437 225.772 308.6 226.133 308.842 226.439C310.352 228.309 314.032 231.929 319.442 230.969L324.052 228.629L324.352 223.029L316.132 220.319C315.615 220.249 315.089 220.347 314.632 220.599L312.002 221.799Z" fill="#FAB27B"/>
<path d="M324.071 228.67L335.431 230.1L334.771 223.66L324.371 223.07L324.071 228.67Z" fill="#FAB27B"/>
<path d="M332.001 223.21C331.366 223.998 331.014 224.977 331.001 225.99C330.932 227.591 331.298 229.18 332.061 230.59C330.157 230.28 328.207 230.41 326.361 230.97H326.261C321.101 225.92 325.331 221.77 325.331 221.77L325.711 221.89C327.757 222.546 329.865 222.989 332.001 223.21Z" fill="url(#paint36_linear_728_25510)"/>
<path d="M354.122 232.34C343.232 232.9 330.262 230.34 330.262 230.34C329.959 229.541 329.91 228.668 330.122 227.84C330.532 226.1 331.122 223.95 331.952 223.18C332.782 222.41 337.332 222.74 337.332 222.74C337.332 222.74 346.792 220.22 348.682 219.19C350.572 218.16 351.602 212 352.002 207.84C354.212 185.64 358.352 184.68 362.002 184.31C369.652 183.55 363.762 231.85 354.122 232.34Z" fill="url(#paint37_linear_728_25510)"/>
<path d="M390.001 358.797L382.451 295.697C382.082 292.613 380.595 289.77 378.271 287.708C375.947 285.646 372.948 284.507 369.841 284.507H344.931C341.912 284.496 338.988 285.566 336.688 287.523C334.388 289.48 332.864 292.195 332.391 295.177L322.231 357.997L320.231 357.677L330.401 294.877C330.948 291.426 332.711 288.284 335.372 286.019C338.033 283.754 341.417 282.515 344.911 282.527H369.861C373.457 282.531 376.926 283.85 379.616 286.235C382.306 288.621 384.029 291.908 384.461 295.477L392.011 358.577L390.001 358.797Z" fill="#263238"/>
<path d="M424.941 358.797L417.391 295.697C417.022 292.613 415.534 289.77 413.211 287.708C410.887 285.646 407.888 284.507 404.781 284.507H379.831C376.811 284.494 373.886 285.563 371.585 287.521C369.285 289.478 367.762 292.194 367.291 295.177L357.121 357.997L355.121 357.677L365.291 294.877C365.836 291.425 367.598 288.282 370.26 286.016C372.921 283.751 376.306 282.513 379.801 282.527H404.751C408.346 282.531 411.816 283.85 414.506 286.235C417.195 288.621 418.919 291.908 419.351 295.477L426.901 358.577L424.941 358.797Z" fill="#263238"/>
<path d="M358.261 340.418H323.911V342.418H358.261V340.418Z" fill="#263238"/>
<path d="M419.001 294.578H383.491V296.578H419.001V294.578Z" fill="#263238"/>
<path d="M390.001 284.94H416.131C420.989 284.94 425.669 283.109 429.237 279.811C432.805 276.514 434.999 271.993 435.381 267.15L439.101 220.21C439.243 218.414 439.012 216.608 438.424 214.905C437.836 213.202 436.902 211.639 435.682 210.314C434.462 208.988 432.981 207.929 431.332 207.202C429.684 206.475 427.903 206.097 426.101 206.09H411.601C403.397 206.09 395.412 208.738 388.834 213.641C382.256 218.543 377.436 225.438 375.091 233.3L365.091 266.81C364.276 269.547 362.599 271.948 360.308 273.655C358.018 275.361 355.237 276.282 352.381 276.28H334.101C331.806 276.282 329.606 277.196 327.984 278.82C326.362 280.444 325.451 282.645 325.451 284.94H390.001Z" fill="url(#paint38_linear_728_25510)"/>
<path opacity="0.7" d="M390.001 284.94H416.131C420.989 284.94 425.669 283.109 429.237 279.811C432.805 276.514 434.999 271.993 435.381 267.15L439.101 220.21C439.243 218.414 439.012 216.608 438.424 214.905C437.836 213.202 436.902 211.639 435.682 210.314C434.462 208.988 432.981 207.929 431.332 207.202C429.684 206.475 427.903 206.097 426.101 206.09H411.601C403.397 206.09 395.412 208.738 388.834 213.641C382.256 218.543 377.436 225.438 375.091 233.3L365.091 266.81C364.276 269.547 362.599 271.948 360.308 273.655C358.018 275.361 355.237 276.282 352.381 276.28H334.101C331.806 276.282 329.606 277.196 327.984 278.82C326.362 280.444 325.451 282.645 325.451 284.94H390.001Z" fill="white"/>
<path d="M364.089 122.942V122.832C364.094 122.869 364.094 122.906 364.089 122.942Z" fill="url(#paint39_linear_728_25510)"/>
<path d="M316.999 110.28C313.576 113.434 311.07 117.457 309.749 121.92H307.919C308.552 116.896 310.432 112.111 313.389 108L316.999 110.28Z" fill="url(#paint40_linear_728_25510)"/>
<path opacity="0.6" d="M316.999 110.28C313.576 113.434 311.07 117.457 309.749 121.92H307.919C308.552 116.896 310.432 112.111 313.389 108L316.999 110.28Z" fill="white"/>
<path d="M327.599 104.292C323.638 105.419 320.003 107.476 316.999 110.292L313.389 108.002C316.335 103.879 320.214 100.511 324.709 98.1719L327.599 104.292Z" fill="url(#paint41_linear_728_25510)"/>
<path opacity="0.5" d="M327.599 104.292C323.638 105.419 320.003 107.476 316.999 110.292L313.389 108.002C316.335 103.879 320.214 100.511 324.709 98.1719L327.599 104.292Z" fill="white"/>
<path d="M338.829 94.8008L337.939 103.731C336.661 103.508 335.366 103.398 334.069 103.401C331.882 103.403 329.705 103.702 327.599 104.291L324.709 98.1908C328.937 95.9757 333.636 94.8128 338.409 94.8008H338.829Z" fill="url(#paint42_linear_728_25510)"/>
<path opacity="0.4" d="M338.829 94.8008L337.939 103.731C336.661 103.508 335.366 103.398 334.069 103.401C331.882 103.403 329.705 103.702 327.599 104.291L324.709 98.1908C328.937 95.9757 333.636 94.8128 338.409 94.8008H338.829Z" fill="white"/>
<path d="M352.209 98.5908L346.379 107.141C343.849 105.401 340.968 104.237 337.939 103.731L338.829 94.8008C343.55 94.8343 348.173 96.1439 352.209 98.5908Z" fill="url(#paint43_linear_728_25510)"/>
<path opacity="0.3" d="M352.209 98.5908L346.379 107.141C343.849 105.401 340.968 104.237 337.939 103.731L338.829 94.8008C343.55 94.8343 348.173 96.1439 352.209 98.5908Z" fill="white"/>
<path d="M361.459 108.67L352.359 113.54C350.846 110.997 348.799 108.814 346.359 107.14L352.189 98.5898C356.157 101.022 359.368 104.513 361.459 108.67Z" fill="url(#paint44_linear_728_25510)"/>
<path opacity="0.2" d="M361.459 108.67L352.359 113.54C350.846 110.997 348.799 108.814 346.359 107.14L352.189 98.5898C356.157 101.022 359.368 104.513 361.459 108.67Z" fill="white"/>
<path d="M364.119 122.572L355.219 122.472C354.941 119.32 353.964 116.269 352.359 113.542L361.459 108.672C363.593 112.977 364.513 117.783 364.119 122.572Z" fill="url(#paint45_linear_728_25510)"/>
<path opacity="0.1" d="M364.119 122.572L355.219 122.472C354.941 119.32 353.964 116.269 352.359 113.542L361.459 108.672C363.593 112.977 364.513 117.783 364.119 122.572Z" fill="white"/>
<path d="M364.099 122.833C364.104 122.869 364.104 122.906 364.099 122.943C363.739 126.072 362.941 129.135 361.729 132.043L354.519 130.413L355.099 127.663C355.149 127.303 355.199 126.943 355.229 126.583V126.363C355.344 125.069 355.344 123.767 355.229 122.473L364.129 122.573C364.129 122.633 364.129 122.673 364.129 122.723C364.124 122.761 364.114 122.798 364.099 122.833Z" fill="url(#paint46_linear_728_25510)"/>
<path d="M308.999 131.472L308.469 131.592C308.299 130.902 308.159 130.202 308.039 129.492C307.702 127.326 307.621 125.128 307.799 122.942V122.832C307.794 122.796 307.794 122.759 307.799 122.722C307.799 122.452 307.849 122.172 307.889 121.902H309.719C309.294 123.352 309.006 124.839 308.859 126.342C308.859 126.342 308.859 126.412 308.859 126.452C308.859 126.492 308.859 126.522 308.859 126.562C308.792 127.451 308.776 128.342 308.809 129.232C308.849 130.002 308.909 130.742 308.999 131.472Z" fill="url(#paint47_linear_728_25510)"/>
<path opacity="0.7" d="M308.999 131.472L308.469 131.592C308.299 130.902 308.159 130.202 308.039 129.492C307.702 127.326 307.621 125.128 307.799 122.942V122.832C307.794 122.796 307.794 122.759 307.799 122.722C307.799 122.452 307.849 122.172 307.889 121.902H309.719C309.294 123.352 309.006 124.839 308.859 126.342C308.859 126.342 308.859 126.412 308.859 126.452C308.859 126.492 308.859 126.522 308.859 126.562C308.792 127.451 308.776 128.342 308.809 129.232C308.849 130.002 308.909 130.742 308.999 131.472Z" fill="white"/>
<path d="M363.519 130.001L362.759 131.881L361.219 131.541L346.869 128.291L340.689 126.891C341.118 126.335 341.475 125.727 341.749 125.081C342.064 124.327 342.253 123.526 342.309 122.711L356.009 127.421L363.519 130.001Z" fill="#263238"/>
<path d="M342.309 122.731C342.194 124.254 341.63 125.709 340.689 126.911L335.139 125.651L336.889 120.871L342.309 122.731Z" fill="#263238"/>
<path d="M342.309 122.73C342.194 124.253 341.631 125.708 340.689 126.91C340 127.79 339.135 128.515 338.149 129.04C334.579 130.95 330.369 129.75 328.759 126.34C328.02 124.585 327.975 122.615 328.632 120.828C329.289 119.04 330.599 117.569 332.299 116.71C335.869 114.8 340.079 116.01 341.699 119.41C342.185 120.446 342.395 121.59 342.309 122.73Z" fill="url(#paint48_linear_728_25510)"/>
<path d="M114.48 118.5H120.21V123.3H113.91L113.03 130.3H108.03L108.91 123.3H102.44L101.56 130.3H96.6595L97.5395 123.3H91.7695V118.5H98.1095L99.0295 111.37H93.2695V106.57H99.6095L100.49 99.5703H105.42L104.54 106.57H111L111.88 99.5703H116.81L115.93 106.57H121.65V111.37H115.31L114.48 118.5ZM109.48 118.5L110.4 111.37H104L103 118.5H109.48Z" fill="url(#paint49_linear_728_25510)"/>
<path d="M136.18 99.5195V130.34H129.05V105.25H122.89V99.5195H136.18Z" fill="url(#paint50_linear_728_25510)"/>
<path d="M109.458 227.688H60.1484V261.638H109.458V227.688Z" fill="#263238"/>
<path d="M109.458 227.688H60.1484V230.797H109.458V227.688Z" fill="url(#paint51_linear_728_25510)"/>
<path d="M69.1787 246.467L77.2487 250.938C77.5509 251.085 77.8224 251.289 78.0487 251.538C78.19 251.735 78.2605 251.975 78.2487 252.217C78.2511 252.386 78.2196 252.554 78.1561 252.71C78.0925 252.866 77.9982 253.008 77.8787 253.128C77.766 253.248 77.6297 253.344 77.4783 253.409C77.3269 253.475 77.1636 253.508 76.9987 253.508C76.6424 253.465 76.3004 253.342 75.9987 253.147L65.5987 247.357C65.4349 247.274 65.2975 247.146 65.2015 246.989C65.1055 246.832 65.0547 246.652 65.0547 246.467C65.0547 246.283 65.1055 246.103 65.2015 245.946C65.2975 245.789 65.4349 245.661 65.5987 245.577L75.9987 239.788C76.3028 239.6 76.644 239.48 76.9987 239.438C77.333 239.443 77.652 239.578 77.8874 239.816C78.1229 240.053 78.2562 240.373 78.2587 240.707C78.2773 240.951 78.2062 241.193 78.0587 241.388C77.8361 241.643 77.564 241.85 77.2587 241.997L69.1787 246.467Z" fill="white"/>
<path d="M89.9282 238.136L81.9282 255.326C81.8075 255.642 81.6199 255.928 81.3782 256.166C81.1634 256.339 80.8942 256.431 80.6182 256.426C80.4542 256.426 80.2919 256.393 80.1408 256.329C79.9897 256.266 79.8528 256.173 79.7382 256.056C79.6227 255.952 79.5301 255.826 79.4664 255.685C79.4026 255.544 79.3692 255.391 79.3682 255.236C79.3975 254.886 79.4961 254.546 79.6582 254.236L87.6582 237.056C87.7798 236.742 87.9635 236.456 88.1982 236.216C88.4359 236.032 88.7322 235.941 89.0319 235.959C89.3317 235.978 89.6147 236.104 89.8282 236.316C89.9441 236.418 90.0371 236.545 90.1008 236.686C90.1646 236.827 90.1978 236.981 90.1982 237.136C90.1751 237.483 90.0833 237.823 89.9282 238.136Z" fill="white"/>
<path d="M99.9987 246.468L91.8987 241.998C91.5891 241.853 91.3132 241.645 91.0887 241.388C90.9488 241.189 90.8785 240.95 90.8887 240.707C90.8861 240.541 90.9186 240.375 90.9841 240.222C91.0496 240.069 91.1465 239.931 91.2687 239.818C91.3814 239.697 91.5177 239.601 91.6691 239.536C91.8205 239.47 91.9837 239.437 92.1487 239.438C92.5038 239.479 92.8453 239.598 93.1487 239.788L103.549 245.577C103.712 245.661 103.85 245.789 103.946 245.946C104.042 246.103 104.093 246.283 104.093 246.468C104.093 246.652 104.042 246.832 103.946 246.989C103.85 247.146 103.712 247.274 103.549 247.357L93.1487 253.147C92.8475 253.343 92.5053 253.466 92.1487 253.508C91.9823 253.508 91.8177 253.474 91.6647 253.409C91.5118 253.343 91.3736 253.248 91.2587 253.128C91.0211 252.884 90.8882 252.558 90.8887 252.218C90.8814 251.975 90.9514 251.737 91.0887 251.538C91.3171 251.287 91.5922 251.083 91.8987 250.938L99.9987 246.468Z" fill="white"/>
<defs>
<linearGradient id="paint0_linear_728_25510" x1="339.429" y1="304.451" x2="306.364" y2="214.759" gradientUnits="userSpaceOnUse">
<stop stop-color="#FB9400"/>
<stop offset="1" stop-color="#FFAB38"/>
</linearGradient>
<linearGradient id="paint1_linear_728_25510" x1="335.999" y1="277.14" x2="117.386" y2="173.752" gradientUnits="userSpaceOnUse">
<stop stop-color="#FB9400"/>
<stop offset="1" stop-color="#FFAB38"/>
</linearGradient>
<linearGradient id="paint2_linear_728_25510" x1="261.362" y1="157.139" x2="201.205" y2="137.581" gradientUnits="userSpaceOnUse">
<stop stop-color="#FB9400"/>
<stop offset="1" stop-color="#FFAB38"/>
</linearGradient>
<linearGradient id="paint3_linear_728_25510" x1="225" y1="159.348" x2="213.219" y2="158.705" gradientUnits="userSpaceOnUse">
<stop stop-color="#FB9400"/>
<stop offset="1" stop-color="#FFAB38"/>
</linearGradient>
<linearGradient id="paint4_linear_728_25510" x1="225" y1="157.106" x2="213.223" y2="156.432" gradientUnits="userSpaceOnUse">
<stop stop-color="#FB9400"/>
<stop offset="1" stop-color="#FFAB38"/>
</linearGradient>
<linearGradient id="paint5_linear_728_25510" x1="225" y1="148.381" x2="213.242" y2="147.553" gradientUnits="userSpaceOnUse">
<stop stop-color="#FB9400"/>
<stop offset="1" stop-color="#FFAB38"/>
</linearGradient>
<linearGradient id="paint6_linear_728_25510" x1="225" y1="135.985" x2="213.313" y2="134.758" gradientUnits="userSpaceOnUse">
<stop stop-color="#FB9400"/>
<stop offset="1" stop-color="#FFAB38"/>
</linearGradient>
<linearGradient id="paint7_linear_728_25510" x1="225" y1="123.971" x2="213.638" y2="121.701" gradientUnits="userSpaceOnUse">
<stop stop-color="#FB9400"/>
<stop offset="1" stop-color="#FFAB38"/>
</linearGradient>
<linearGradient id="paint8_linear_728_25510" x1="254.479" y1="159.348" x2="242.699" y2="158.705" gradientUnits="userSpaceOnUse">
<stop stop-color="#FB9400"/>
<stop offset="1" stop-color="#FFAB38"/>
</linearGradient>
<linearGradient id="paint9_linear_728_25510" x1="254.479" y1="157.106" x2="242.702" y2="156.432" gradientUnits="userSpaceOnUse">
<stop stop-color="#FB9400"/>
<stop offset="1" stop-color="#FFAB38"/>
</linearGradient>
<linearGradient id="paint10_linear_728_25510" x1="254.479" y1="148.381" x2="242.722" y2="147.553" gradientUnits="userSpaceOnUse">
<stop stop-color="#FB9400"/>
<stop offset="1" stop-color="#FFAB38"/>
</linearGradient>
<linearGradient id="paint11_linear_728_25510" x1="254.479" y1="135.985" x2="242.792" y2="134.758" gradientUnits="userSpaceOnUse">
<stop stop-color="#FB9400"/>
<stop offset="1" stop-color="#FFAB38"/>
</linearGradient>
<linearGradient id="paint12_linear_728_25510" x1="254.479" y1="123.971" x2="243.117" y2="121.701" gradientUnits="userSpaceOnUse">
<stop stop-color="#FB9400"/>
<stop offset="1" stop-color="#FFAB38"/>
</linearGradient>
<linearGradient id="paint13_linear_728_25510" x1="242.56" y1="159.481" x2="223.525" y2="158.442" gradientUnits="userSpaceOnUse">
<stop stop-color="#FB9400"/>
<stop offset="1" stop-color="#FFAB38"/>
</linearGradient>
<linearGradient id="paint14_linear_728_25510" x1="242.56" y1="155.875" x2="223.531" y2="154.785" gradientUnits="userSpaceOnUse">
<stop stop-color="#FB9400"/>
<stop offset="1" stop-color="#FFAB38"/>
</linearGradient>
<linearGradient id="paint15_linear_728_25510" x1="242.56" y1="141.754" x2="223.563" y2="140.413" gradientUnits="userSpaceOnUse">
<stop stop-color="#FB9400"/>
<stop offset="1" stop-color="#FFAB38"/>
</linearGradient>
<linearGradient id="paint16_linear_728_25510" x1="242.56" y1="121.814" x2="223.677" y2="119.832" gradientUnits="userSpaceOnUse">
<stop stop-color="#FB9400"/>
<stop offset="1" stop-color="#FFAB38"/>
</linearGradient>
<linearGradient id="paint17_linear_728_25510" x1="242.56" y1="102.384" x2="224.203" y2="98.7119" gradientUnits="userSpaceOnUse">
<stop stop-color="#FB9400"/>
<stop offset="1" stop-color="#FFAB38"/>
</linearGradient>
<linearGradient id="paint18_linear_728_25510" x1="239.47" y1="114.948" x2="229.213" y2="111.974" gradientUnits="userSpaceOnUse">
<stop stop-color="#FB9400"/>
<stop offset="1" stop-color="#FFAB38"/>
</linearGradient>
<linearGradient id="paint19_linear_728_25510" x1="239.489" y1="115.571" x2="230.879" y2="110.924" gradientUnits="userSpaceOnUse">
<stop stop-color="#FB9400"/>
<stop offset="1" stop-color="#FFAB38"/>
</linearGradient>
<linearGradient id="paint20_linear_728_25510" x1="236.25" y1="113.662" x2="233.381" y2="113.353" gradientUnits="userSpaceOnUse">
<stop stop-color="#FB9400"/>
<stop offset="1" stop-color="#FFAB38"/>
</linearGradient>
<linearGradient id="paint21_linear_728_25510" x1="237.219" y1="113.639" x2="235.119" y2="113.46" gradientUnits="userSpaceOnUse">
<stop stop-color="#FB9400"/>
<stop offset="1" stop-color="#FFAB38"/>
</linearGradient>
<linearGradient id="paint22_linear_728_25510" x1="367.811" y1="233.099" x2="356.471" y2="229.718" gradientUnits="userSpaceOnUse">
<stop stop-color="#FB9400"/>
<stop offset="1" stop-color="#FFAB38"/>
</linearGradient>
<linearGradient id="paint23_linear_728_25510" x1="397.211" y1="231.767" x2="357.272" y2="224.84" gradientUnits="userSpaceOnUse">
<stop stop-color="#FB9400"/>
<stop offset="1" stop-color="#FFAB38"/>
</linearGradient>
<linearGradient id="paint24_linear_728_25510" x1="346.945" y1="234.44" x2="305.803" y2="210.309" gradientUnits="userSpaceOnUse">
<stop stop-color="#FB9400"/>
<stop offset="1" stop-color="#FFAB38"/>
</linearGradient>
<linearGradient id="paint25_linear_728_25510" x1="314.702" y1="234.44" x2="299.669" y2="231.979" gradientUnits="userSpaceOnUse">
<stop stop-color="#FB9400"/>
<stop offset="1" stop-color="#FFAB38"/>
</linearGradient>
<linearGradient id="paint26_linear_728_25510" x1="278.281" y1="303.085" x2="271.689" y2="300.461" gradientUnits="userSpaceOnUse">
<stop stop-color="#FB9400"/>
<stop offset="1" stop-color="#FFAB38"/>
</linearGradient>
<linearGradient id="paint27_linear_728_25510" x1="278.759" y1="303.151" x2="275.316" y2="302.671" gradientUnits="userSpaceOnUse">
<stop stop-color="#FB9400"/>
<stop offset="1" stop-color="#FFAB38"/>
</linearGradient>
<linearGradient id="paint28_linear_728_25510" x1="298.851" y1="303.998" x2="278.687" y2="296.469" gradientUnits="userSpaceOnUse">
<stop stop-color="#FB9400"/>
<stop offset="1" stop-color="#FFAB38"/>
</linearGradient>
<linearGradient id="paint29_linear_728_25510" x1="307.191" y1="348.099" x2="301.586" y2="344.239" gradientUnits="userSpaceOnUse">
<stop stop-color="#FB9400"/>
<stop offset="1" stop-color="#FFAB38"/>
</linearGradient>
<linearGradient id="paint30_linear_728_25510" x1="307.252" y1="348.039" x2="302.887" y2="347.122" gradientUnits="userSpaceOnUse">
<stop stop-color="#FB9400"/>
<stop offset="1" stop-color="#FFAB38"/>
</linearGradient>
<linearGradient id="paint31_linear_728_25510" x1="324.837" y1="341.42" x2="311.513" y2="329.158" gradientUnits="userSpaceOnUse">
<stop stop-color="#FB9400"/>
<stop offset="1" stop-color="#FFAB38"/>
</linearGradient>
<linearGradient id="paint32_linear_728_25510" x1="381.992" y1="182.96" x2="362.442" y2="175.189" gradientUnits="userSpaceOnUse">
<stop stop-color="#FB9400"/>
<stop offset="1" stop-color="#FFAB38"/>
</linearGradient>
<linearGradient id="paint33_linear_728_25510" x1="381.992" y1="182.96" x2="362.442" y2="175.189" gradientUnits="userSpaceOnUse">
<stop stop-color="#FB9400"/>
<stop offset="1" stop-color="#FFAB38"/>
</linearGradient>
<linearGradient id="paint34_linear_728_25510" x1="409.451" y1="246.759" x2="340.12" y2="230.458" gradientUnits="userSpaceOnUse">
<stop stop-color="#FB9400"/>
<stop offset="1" stop-color="#FFAB38"/>
</linearGradient>
<linearGradient id="paint35_linear_728_25510" x1="409.451" y1="246.759" x2="340.12" y2="230.458" gradientUnits="userSpaceOnUse">
<stop stop-color="#FB9400"/>
<stop offset="1" stop-color="#FFAB38"/>
</linearGradient>
<linearGradient id="paint36_linear_728_25510" x1="332.061" y1="230.97" x2="321.975" y2="228.312" gradientUnits="userSpaceOnUse">
<stop stop-color="#FB9400"/>
<stop offset="1" stop-color="#FFAB38"/>
</linearGradient>
<linearGradient id="paint37_linear_728_25510" x1="365.507" y1="232.42" x2="321.701" y2="223.045" gradientUnits="userSpaceOnUse">
<stop stop-color="#FB9400"/>
<stop offset="1" stop-color="#FFAB38"/>
</linearGradient>
<linearGradient id="paint38_linear_728_25510" x1="439.142" y1="284.94" x2="314.305" y2="232.751" gradientUnits="userSpaceOnUse">
<stop stop-color="#FB9400"/>
<stop offset="1" stop-color="#FFAB38"/>
</linearGradient>
<linearGradient id="paint39_linear_728_25510" x1="364.093" y1="122.942" x2="364.088" y2="122.942" gradientUnits="userSpaceOnUse">
<stop stop-color="#FB9400"/>
<stop offset="1" stop-color="#FFAB38"/>
</linearGradient>
<linearGradient id="paint40_linear_728_25510" x1="316.999" y1="121.92" x2="305.691" y2="119.781" gradientUnits="userSpaceOnUse">
<stop stop-color="#FB9400"/>
<stop offset="1" stop-color="#FFAB38"/>
</linearGradient>
<linearGradient id="paint41_linear_728_25510" x1="327.599" y1="110.292" x2="311.167" y2="104.706" gradientUnits="userSpaceOnUse">
<stop stop-color="#FB9400"/>
<stop offset="1" stop-color="#FFAB38"/>
</linearGradient>
<linearGradient id="paint42_linear_728_25510" x1="338.829" y1="104.291" x2="323.473" y2="97.6662" gradientUnits="userSpaceOnUse">
<stop stop-color="#FB9400"/>
<stop offset="1" stop-color="#FFAB38"/>
</linearGradient>
<linearGradient id="paint43_linear_728_25510" x1="352.209" y1="107.141" x2="335.662" y2="101.593" gradientUnits="userSpaceOnUse">
<stop stop-color="#FB9400"/>
<stop offset="1" stop-color="#FFAB38"/>
</linearGradient>
<linearGradient id="paint44_linear_728_25510" x1="361.459" y1="113.54" x2="343.52" y2="108.286" gradientUnits="userSpaceOnUse">
<stop stop-color="#FB9400"/>
<stop offset="1" stop-color="#FFAB38"/>
</linearGradient>
<linearGradient id="paint45_linear_728_25510" x1="364.208" y1="122.572" x2="349.804" y2="119.012" gradientUnits="userSpaceOnUse">
<stop stop-color="#FB9400"/>
<stop offset="1" stop-color="#FFAB38"/>
</linearGradient>
<linearGradient id="paint46_linear_728_25510" x1="364.129" y1="132.043" x2="352.701" y2="128.715" gradientUnits="userSpaceOnUse">
<stop stop-color="#FB9400"/>
<stop offset="1" stop-color="#FFAB38"/>
</linearGradient>
<linearGradient id="paint47_linear_728_25510" x1="309.719" y1="131.592" x2="307.133" y2="131.437" gradientUnits="userSpaceOnUse">
<stop stop-color="#FB9400"/>
<stop offset="1" stop-color="#FFAB38"/>
</linearGradient>
<linearGradient id="paint48_linear_728_25510" x1="342.328" y1="129.948" x2="325.484" y2="125.059" gradientUnits="userSpaceOnUse">
<stop stop-color="#FB9400"/>
<stop offset="1" stop-color="#FFAB38"/>
</linearGradient>
<linearGradient id="paint49_linear_728_25510" x1="121.65" y1="130.3" x2="85.944" y2="120.234" gradientUnits="userSpaceOnUse">
<stop stop-color="#FB9400"/>
<stop offset="1" stop-color="#FFAB38"/>
</linearGradient>
<linearGradient id="paint50_linear_728_25510" x1="136.18" y1="130.34" x2="119.3" y2="128.229" gradientUnits="userSpaceOnUse">
<stop stop-color="#FB9400"/>
<stop offset="1" stop-color="#FFAB38"/>
</linearGradient>
<linearGradient id="paint51_linear_728_25510" x1="109.458" y1="230.797" x2="106.585" y2="217.586" gradientUnits="userSpaceOnUse">
<stop stop-color="#FB9400"/>
<stop offset="1" stop-color="#FFAB38"/>
</linearGradient>
</defs>
</svg>
